<svg width="48" height="48" viewBox="0 0 48 48" fill="none" xmlns="http://www.w3.org/2000/svg">
<path d="M20.7261 33.3138C25.6712 33.9869 30.0807 35.2229 33.2081 36.6637C34.7745 37.3854 35.9922 38.1459 36.7946 38.8924C37.6062 39.6474 37.9147 40.3098 37.8729 40.8573C37.8309 41.405 37.4282 41.9713 36.5184 42.4921C35.6192 43.0069 34.3112 43.4237 32.6676 43.7084C29.3861 44.2769 24.88 44.2993 19.9349 43.6262C14.99 42.9531 10.5812 41.7172 7.45387 40.2764C5.88754 39.5548 4.66988 38.7942 3.86738 38.0478C3.05552 37.2926 2.74716 36.6295 2.78918 36.0818C2.83139 35.5343 3.23406 34.9687 4.14355 34.448C5.04281 33.9332 6.35079 33.5164 7.99434 33.2317C11.2758 32.6633 15.7812 32.6407 20.7261 33.3138Z" stroke="#242225"/>
<path d="M11.9761 27.6454C14.0917 25.2034 15.7405 22.7589 16.6995 20.7907C17.1806 19.8032 17.4749 18.961 17.5793 18.3158C17.6881 17.6433 17.5694 17.337 17.4432 17.2147C17.3168 17.0925 17.0178 16.9942 16.3938 17.1676C15.7951 17.334 15.0281 17.7183 14.1398 18.3115C12.3693 19.4938 10.2105 21.4442 8.0948 23.8862C5.97909 26.3282 4.33035 28.7727 3.37138 30.7409C2.8903 31.7283 2.59594 32.5692 2.49146 33.2143C2.38259 33.8868 2.50082 34.1937 2.62699 34.3162C2.75325 34.4385 3.05255 34.5361 3.67695 34.3625C4.2757 34.1961 5.04275 33.8132 5.93106 33.2201C7.70152 32.0378 9.86034 30.0874 11.9761 27.6454Z" stroke="#242225"/>
<path d="M24.1204 0.5C27.7349 0.5 30.7769 3.87755 30.7772 8.19043C30.7775 12.5033 27.7361 15.8809 24.1216 15.8809C20.5072 15.8806 17.466 12.5032 17.4657 8.19043C17.4654 3.87769 20.5061 0.500231 24.1204 0.5Z" stroke="#242225"/>
<path d="M24.7506 25.5769C26.6353 25.6229 28.3 26.2023 29.4675 27.0769C30.6363 27.9526 31.2727 29.0922 31.2263 30.2767C31.1797 31.4609 30.4555 32.5667 29.2206 33.3836C27.9868 34.1997 26.2801 34.697 24.3954 34.651C22.5109 34.605 20.847 34.0255 19.6795 33.151C18.5107 32.2754 17.8735 31.1365 17.9197 29.9522C17.9661 28.7677 18.6912 27.6613 19.9264 26.8443C21.1601 26.0283 22.8661 25.531 24.7506 25.5769Z" stroke="#242225"/>
<path d="M24.1216 16.3674C26.0069 16.3674 27.693 16.9062 28.894 17.7522C30.0964 18.5991 30.7777 19.7223 30.7778 20.9075C30.7778 22.0927 30.0963 23.2158 28.894 24.0627C27.693 24.9087 26.0069 25.4485 24.1216 25.4485C22.2364 25.4484 20.5511 24.9087 19.3501 24.0627C18.1478 23.2158 17.4663 22.0928 17.4663 20.9075C17.4664 19.7223 18.1478 18.5991 19.3501 17.7522C20.551 16.9063 22.2365 16.3675 24.1216 16.3674Z" stroke="#242225"/>
<path d="M28.2084 33.9291C33.1748 33.4236 37.6874 33.598 40.9633 34.2763C42.6042 34.616 43.9069 35.0763 44.7977 35.6207C45.6986 36.1715 46.0897 36.7501 46.1211 37.2983C46.1525 37.8464 45.8318 38.4975 45.0041 39.2242C44.1857 39.9427 42.9506 40.6612 41.3673 41.3292C38.2067 42.6626 33.7663 43.7485 28.7999 44.254C23.8337 44.7595 19.3209 44.5851 16.0451 43.9069C14.4043 43.5671 13.1023 43.1067 12.2117 42.5623C11.3105 42.0115 10.9186 41.4331 10.8872 40.8849C10.8558 40.3367 11.1773 39.6857 12.0052 38.9589C12.8235 38.2405 14.058 37.5219 15.641 36.854C18.8016 35.5205 23.2422 34.4347 28.2084 33.9291Z" stroke="#242225"/>
<path d="M36.0348 27.6555C38.1504 30.0974 40.3088 32.0472 42.0781 33.2284C42.9659 33.821 43.7323 34.2046 44.3304 34.3705C44.9537 34.5433 45.2522 34.4443 45.3782 34.3218C45.5041 34.1992 45.6224 33.8924 45.5129 33.2191C45.4078 32.5733 45.1123 31.7312 44.6306 30.7431C43.6705 28.7739 42.0218 26.3281 39.9061 23.886C37.7904 21.444 35.6315 19.495 33.8621 18.3138C32.9744 17.7212 32.2085 17.3383 31.6104 17.1724C30.9866 16.9995 30.6879 17.0978 30.562 17.2204C30.4362 17.3431 30.3184 17.6506 30.428 18.3238C30.5331 18.9696 30.828 19.8112 31.3097 20.7991C32.2697 22.7683 33.9191 25.2134 36.0348 27.6555Z" stroke="#242225"/>
<ellipse cx="24.4479" cy="46.7398" rx="16.5881" ry="1.26008" fill="#BC5536"/>
</svg>
