<svg width="484" height="486" viewBox="0 0 484 486" fill="none" xmlns="http://www.w3.org/2000/svg">
<path d="M478.187 446.026C481.064 411.436 485.093 276.721 478.187 14.5717H465.959V7.28978L453.73 9.71709V3.04199L241.532 94.6728L24.2988 3.04199V9.71709L12.0704 7.28978V14.5717H2V446.026C91.9145 450.273 172.478 456.342 214.918 483.042H263.112C312.025 456.948 393.308 449.06 478.187 446.026Z" fill="#242225" stroke="#E1E0E8" stroke-width="4"/>
<path d="M454.45 17.606L373.167 44.9132L420.642 33.9903V416.291C322.938 431.021 289.288 442.33 253.761 466.051L268.866 469.085C321.019 448.561 365.3 442.948 454.45 436.923V17.606Z" fill="#E1E0E8" stroke="#E1E0E8" stroke-width="4"/>
<path d="M27.1761 18.2129L108.459 45.5201L60.9839 34.5972V416.898C158.688 431.628 192.338 442.937 227.865 466.658L212.76 469.692C160.607 449.168 116.326 443.555 27.1761 437.53V18.2129Z" fill="#E1E0E8" stroke="#E1E0E8" stroke-width="4"/>
<path d="M437.186 33.3833V415.684M44.4397 33.3833V415.684" stroke="#242225" stroke-width="4"/>
<path d="M77.4414 359.071C67.9557 358.988 65.3553 356.332 68.8865 343.747C116.058 321.076 145.814 336.791 174.989 353.885C195.795 366.075 235.579 375.106 261.899 375.278C264.348 372.88 268.187 371.279 271.369 374.492C281.67 371.195 292.844 365.985 305.117 358.365C320.932 348.546 338.571 334.727 358.519 315.844C367.554 320.667 375.12 325.662 381.613 331.884C390.893 340.776 397.982 352.171 404.036 369.146C406.278 375.428 408.377 382.476 410.394 390.443C412.212 397.628 413.963 405.561 415.69 414.357C357.676 435.725 308.993 442.24 273.402 442.038C267.174 442.003 266.981 444.433 261.802 437.871C175.393 412.76 132.934 327.523 77.4414 359.071Z" fill="#E1E0E8"/>
<path d="M305.117 358.365C320.932 348.546 338.571 334.727 358.519 315.844C367.554 320.667 375.12 325.662 381.613 331.884M305.117 358.365C319.561 374.631 325.714 387.742 327.186 404.39M305.117 358.365C292.844 365.985 281.67 371.195 271.369 374.492M410.394 390.443C412.212 397.628 413.963 405.561 415.69 414.357C357.676 435.725 308.993 442.24 273.402 442.038M410.394 390.443C379.751 405.387 362.173 413.169 327.277 421.7M410.394 390.443C408.377 382.476 406.278 375.428 404.036 369.146M326.068 435.269C326.612 430.436 327.026 425.935 327.277 421.7M327.277 421.7C327.648 415.42 327.657 409.724 327.186 404.39M327.186 404.39C357.223 392.735 374.04 384.872 404.036 369.146M404.036 369.146C397.982 352.171 390.893 340.776 381.613 331.884M393.219 351.048C367.809 367.723 353.004 375.569 325.757 387.192M381.613 331.884C363.6 347.234 349.446 355.97 318.806 371.735M271.369 374.492C284.343 407.836 279.092 422.108 273.402 442.038M271.369 374.492C268.187 371.279 264.348 372.88 261.899 375.278M273.402 442.038C267.174 442.003 266.981 444.433 261.802 437.871M261.899 375.278C266.117 386.202 276.95 420.91 261.802 437.871M261.899 375.278C235.579 375.106 195.795 366.075 174.989 353.885C145.814 336.791 116.058 321.076 68.8865 343.747C65.3553 356.332 67.9557 358.988 77.4414 359.071C132.934 327.523 175.393 412.76 261.802 437.871M285.229 369.222C310.893 359.393 320.877 391.916 310.123 397.94C297.156 404.376 283.272 401.453 284.738 387.221C286.128 380.05 303.679 380.268 302.86 390.205M298.492 441.237C321.668 439.312 324.553 413.266 311.401 408.068C298.871 403.116 287.088 408.655 290.749 424.128C293.171 431.816 307.465 428.755 305.089 417.917M186.274 397.323C179.273 380.994 177.158 371.991 178.233 356.302M194.753 363.909C194.845 379.796 198.323 390.545 205.901 410.445M226.079 422.238C216.504 393.572 213.093 381.824 213.034 368.804M231.263 373.063C233.95 395.447 237.513 408.434 247.466 432.648M249.279 374.773C251.967 397.158 254.608 407.014 264.56 431.228" stroke="#242225" stroke-width="4" stroke-linecap="round"/>
<path d="M137.311 269.535C129.155 247.625 143.136 202.465 170.627 190.322C169.614 181.433 169.515 177.284 170.627 172.116C167.414 172.467 165.831 174.913 163.038 179.593C163.038 170.373 166.449 165.96 172.197 160.087C167.709 161.392 165.33 162.889 161.206 166.264C163.793 158.726 166.502 154.857 174.029 148.708C169.545 149.661 167.081 149.943 163.038 148.708C170.888 144.251 174.086 140.261 177.431 130.177C162.699 115.249 148.367 91.1885 142.625 71.0068C151.986 79.1993 165.137 98.3486 177.431 104.494V91.9256L214.204 126.835L200.672 102.667C207.629 106.201 226.029 125.112 232.387 132.453C232.387 122.587 220.331 99.7918 203.846 95.2799C228.618 83.3849 247.374 81.7443 276.038 95.2799C251.628 104.114 244.543 125.621 244.543 132.453C250.494 125.062 272.483 106.017 279.868 102.667L263.896 126.835L302.522 91.9256V104.494C314.326 98.7148 326.636 79.4677 336.28 71.0068C330.097 91.2931 316.202 115.205 301.475 130.177C305.327 140.307 309.064 142.771 316.391 148.708C312.273 148.177 310.032 148.035 306.447 148.708C313.85 155.3 319.159 164.853 319.27 168.215C314.556 162.342 311.731 160.67 306.447 160.087C313.01 166.532 317.931 171.063 316.391 179.593C314.032 174.79 312.534 172.756 309.064 172.116C309.55 179.173 309.405 183.153 308.017 190.322C341.205 200.676 350.914 243.154 337.71 269.535L329.738 253.393C326.191 292.126 320.023 310.182 295.717 330.768C303.287 309.726 299.395 277.733 295.717 256.404C291.963 281.425 294.432 316.518 278.707 334.344C293.101 340.521 288.885 359.874 278.707 378.234L275.044 364.254C272.28 372.453 270.04 376.292 264.576 381.485C264.213 374.585 263.728 371.146 261.435 367.18L239.715 393.839L216.685 367.18C215.2 373.435 214.944 377.173 216.685 384.736C210.401 378.071 207.841 373.613 205.171 364.254C201.325 365.861 201.837 370.228 200.984 378.234C189.469 357.752 187.899 336.945 202.292 334.344C187.633 318.316 181.552 288.397 183.712 256.404C173.059 275.272 178.367 310.957 183.712 330.768C159.934 309.844 143.333 294.14 149.691 253.393L137.311 269.535Z" fill="#242225" stroke="#E1E0E8" stroke-width="4"/>
<path d="M188.946 132.453C207.305 144.072 217.593 150.332 236.051 166.589C228.914 165.535 224.844 164.493 217.209 160.087C203.956 149.223 197.829 143.175 188.946 132.453Z" fill="#E1E0E8"/>
<path d="M244.948 166.264C263.205 150.885 273.375 143.076 291.268 132.127C283.316 142.716 278.56 148.712 261.696 161.062C255.512 165.159 251.772 165.87 244.948 166.264Z" fill="#E1E0E8"/>
<path d="M198.366 147.733L203.862 152.61C199.151 163.338 209.358 174.245 216.423 163.338L221.396 166.914C217.596 173.958 213.755 177.241 203.862 173.741C198.184 169.858 193.656 161.062 198.366 147.733Z" fill="#E1E0E8"/>
<path d="M257.249 166.264L263.006 164.313C270.072 173.741 280.278 164.313 275.567 153.26L281.325 147.733C285.812 157.527 280.639 169.858 278.969 171.141C275.996 173.425 262.672 179.717 257.249 166.264Z" fill="#E1E0E8"/>
<path d="M229.526 193.551L239.963 165.986L250.4 193.551L239.963 221.708L229.526 193.551Z" fill="#E1E0E8"/>
<path d="M188.946 198.124C203.863 222.833 226.892 223.158 239.715 244.615C254.108 222.182 277.137 222.507 291.531 197.149C281.586 225.759 246.257 236.487 239.715 288.179C231.341 235.118 204.194 234.285 188.946 198.124Z" fill="#E1E0E8"/>
<path d="M170.104 306.71C163.561 277.776 155.29 258.42 172.459 210.804C167.224 216.601 162.253 229.335 159.113 249.491C159.345 237.393 161.329 222.417 164.87 211.779C156.743 225.516 153.395 233.027 148.645 246.24L157.281 237.788C154.368 273.266 159.339 286.017 170.104 306.71Z" fill="#E1E0E8"/>
<path d="M309.325 306.71C315.813 278.674 325.179 270.788 305.923 207.552C311.606 216.557 314.999 227.581 320.316 250.792C320.439 238.974 319.617 228.048 314.821 213.079L314.899 213.196C323.035 225.416 327.62 232.303 332.093 250.792C329.14 244.306 327.317 241.031 323.457 236.487C323.667 283.907 317.114 287.211 309.325 306.71Z" fill="#E1E0E8"/>
<path d="M212.498 339.221L221.657 344.422C214.516 352.27 212.725 357.24 212.498 366.855C208.904 358.565 207.649 353.389 212.498 339.221Z" fill="#E1E0E8"/>
<path d="M199.152 364.254C200.446 354.626 202.197 349.997 206.741 342.797C204.162 340.533 202.346 340.709 199.152 340.846C195.762 348.506 196.595 353.995 199.152 364.254Z" fill="#E1E0E8"/>
<path d="M266.669 339.546C262.844 341.113 260.9 342.367 257.51 344.748C263.874 353.189 265.54 357.872 267.716 366.205C269.732 356.846 271.117 351.709 266.669 339.546Z" fill="#E1E0E8"/>
<path d="M280.539 341.171C283.249 344.507 283.144 349.628 280.539 363.604C278.481 354.171 277.008 349.115 271.118 342.472L280.539 341.171Z" fill="#E1E0E8"/>
<path d="M193.133 184.795C185.01 173.23 182.403 165.613 189.207 148.383C186.59 175.692 197.32 191.622 221.919 182.194C214.068 189.671 203.077 191.622 193.133 184.795Z" fill="#E1E0E8"/>
<path d="M287.866 145.782C297.287 168.214 282.108 193.573 258.817 181.544C271.189 190.383 277.659 192.922 288.651 180.894C296.763 167.239 295.189 156.645 287.866 145.782Z" fill="#E1E0E8"/>
</svg>
